<?xml version="1.0" standalone="no"?>
<!DOCTYPE svg PUBLIC "-//W3C//DTD SVG 20010904//EN"
 "http://www.w3.org/TR/2001/REC-SVG-20010904/DTD/svg10.dtd">
<svg version="1.0" xmlns="http://www.w3.org/2000/svg"
 width="300.000000pt" height="330.000000pt" viewBox="0 0 300.000000 330.000000"
 preserveAspectRatio="xMidYMid meet">
<metadata>
Created by potrace 1.10, written by Peter Selinger 2001-2011
</metadata>
<g transform="translate(0.000000,330.000000) scale(0.100000,-0.100000)"
fill="#000000" stroke="none">
<path d="M1535 3279 c3 -4 29 -10 58 -14 130 -17 327 -72 432 -122 134 -62
278 -164 385 -272 110 -110 131 -135 181 -212 102 -155 174 -328 215 -520 26
-117 26 -408 1 -529 -54 -259 -175 -499 -338 -674 -100 -107 -150 -156 -160
-156 -5 0 -9 -5 -9 -11 0 -5 15 1 33 14 17 14 38 23 45 21 7 -1 8 0 2 3 -6 3
7 20 29 39 54 46 158 173 216 262 140 218 225 509 225 770 -1 155 -39 359 -96
510 -164 436 -583 790 -1039 876 -97 18 -186 26 -180 15z"/>
<path d="M1115 3260 c-167 -38 -342 -114 -490 -212 -106 -70 -272 -232 -351
-341 -145 -203 -256 -497 -253 -669 1 -48 3 -44 19 47 39 224 122 427 246 605
76 109 220 254 314 316 143 96 223 138 340 179 121 43 161 53 290 75 l105 18
-70 0 c-38 0 -106 -8 -150 -18z"/>
<path d="M1215 3236 c-576 -97 -1018 -517 -1141 -1086 -21 -100 -30 -342 -15
-452 43 -319 179 -588 415 -816 90 -87 247 -202 275 -202 8 0 -1 11 -20 25
-19 13 -45 34 -59 45 -14 11 -30 20 -37 20 -6 0 -13 3 -15 8 -1 4 -20 20 -41
35 -21 16 -34 33 -31 39 4 7 2 8 -4 4 -13 -8 -140 110 -129 120 3 4 23 8 44
10 27 2 46 11 65 33 15 17 39 33 53 37 27 7 58 42 49 56 -3 4 0 8 6 8 7 0 10
7 6 15 -3 9 11 -1 32 -21 54 -53 162 -138 200 -158 18 -9 41 -25 51 -35 9 -9
41 -29 69 -43 28 -14 48 -29 44 -33 -4 -3 5 -4 21 0 15 4 27 3 27 -2 0 -5 9
-19 20 -31 24 -26 70 -29 104 -7 23 15 23 15 22 -17 -1 -18 -5 -36 -11 -40 -6
-5 -6 -8 2 -8 8 0 9 -9 2 -32 -5 -18 -9 -51 -9 -74 0 -26 -7 -51 -20 -66 -18
-23 -23 -24 -67 -16 -92 17 -103 20 -103 30 0 6 -7 8 -15 4 -9 -3 -20 2 -27
13 -11 17 -13 17 -37 -11 -14 -17 -46 -60 -71 -96 l-45 -66 -60 3 c-68 3 -167
24 -227 48 l-40 16 23 18 c13 10 28 19 33 19 5 0 42 20 83 45 40 25 76 45 78
45 3 0 13 8 23 17 10 10 27 24 38 30 17 11 15 12 -11 6 -16 -3 -97 -44 -178
-90 -142 -81 -150 -84 -179 -72 -81 33 -105 82 -71 140 9 15 14 31 11 35 -13
13 -173 -82 -228 -136 -88 -85 -87 -149 4 -233 141 -130 453 -232 876 -284
208 -26 872 -26 1073 0 384 49 654 129 810 241 99 70 127 121 108 194 -16 57
-113 142 -229 201 -52 26 -62 21 -39 -18 9 -16 17 -38 17 -48 0 -28 -47 -68
-112 -97 l-57 -25 -217 105 -217 105 76 52 c253 174 451 445 536 734 41 138
55 242 54 403 0 237 -43 413 -150 623 -189 369 -517 622 -933 719 -111 25
-390 33 -505 14z m365 -10 c160 -23 248 -45 355 -91 17 -7 41 -16 54 -20 34
-10 199 -106 224 -130 12 -12 36 -29 52 -39 46 -28 85 -68 78 -79 -3 -6 -1 -7
5 -3 6 3 19 -5 30 -19 11 -13 23 -21 27 -17 5 4 5 2 1 -5 -4 -7 4 -19 19 -29
13 -9 22 -20 19 -25 -3 -5 1 -9 8 -9 20 0 42 -40 29 -53 -11 -11 -70 30 -70
51 -1 6 -5 12 -11 12 -5 0 -10 6 -10 14 0 8 -20 27 -45 43 -25 15 -48 36 -51
45 -3 9 -20 27 -39 38 -27 17 -44 20 -77 15 -43 -6 -43 -6 -45 25 -3 35 -51
101 -70 95 -7 -3 -12 1 -10 8 1 8 -14 13 -42 15 -29 2 -55 12 -74 28 -16 13
-37 24 -48 24 -11 0 -17 5 -14 10 6 10 -26 15 -74 12 -13 -1 -35 8 -48 18 -23
17 -28 18 -52 5 -25 -13 -30 -12 -53 10 -31 29 -45 32 -81 17 -20 -9 -33 -9
-52 0 -13 6 -22 14 -20 18 11 17 -52 -5 -71 -25 l-20 -22 -41 23 c-23 12 -44
20 -47 17 -3 -4 -6 -1 -6 5 0 7 -7 12 -15 12 -8 0 -15 -4 -15 -10 0 -5 -11
-10 -25 -10 -25 0 -65 -31 -65 -51 0 -6 5 -19 11 -30 6 -11 10 -52 10 -91 0
-56 4 -74 17 -84 9 -8 13 -14 7 -14 -5 0 -28 -5 -50 -10 -34 -8 -38 -7 -22 5
17 12 17 16 3 49 -8 20 -22 36 -30 36 -18 0 -37 52 -25 71 14 23 10 47 -11 67
-18 17 -26 17 -65 7 -25 -6 -50 -16 -57 -23 -7 -7 -17 -12 -23 -12 -5 0 -15
-8 -21 -18 -12 -18 -64 -29 -64 -13 0 13 -81 -27 -104 -51 -11 -12 -16 -29
-13 -44 4 -22 1 -24 -40 -24 -24 0 -57 -7 -73 -15 -33 -17 -68 -78 -65 -113 2
-31 -12 -38 -35 -17 -10 9 -24 14 -30 10 -7 -4 -17 -1 -22 6 -8 11 -9 11 -5
-3 3 -9 -3 -24 -13 -33 -10 -9 -21 -27 -24 -40 -4 -15 -20 -28 -46 -39 -22 -9
-40 -19 -41 -23 0 -5 -2 -16 -4 -26 -2 -10 4 -25 13 -32 9 -7 48 -43 86 -79
50 -47 76 -65 92 -63 12 1 46 29 75 62 179 196 393 318 626 355 111 18 313 13
408 -10 397 -94 700 -387 802 -775 23 -87 26 -120 26 -260 0 -141 -3 -172 -26
-256 -47 -179 -132 -336 -251 -466 -106 -116 -327 -263 -347 -231 -13 19 -11
28 5 28 12 0 86 38 86 44 0 2 -48 0 -62 -3 -4 0 -16 -10 -26 -21 -16 -17 -24
-19 -46 -11 -33 13 -67 1 -94 -34 -12 -15 -25 -24 -30 -21 -5 3 -24 1 -43 -5
-67 -21 -86 -20 -93 3 -3 12 -8 19 -12 16 -3 -4 -4 -19 0 -33 7 -29 24 -31
109 -11 53 12 57 12 57 -4 0 -21 -57 -38 -156 -47 -44 -4 -64 -10 -64 -19 0
-8 7 -14 15 -14 8 0 15 -8 15 -17 0 -10 4 -24 9 -32 6 -10 8 0 5 28 -3 37 -2
42 11 31 8 -7 14 -22 14 -34 -1 -11 8 -44 19 -72 12 -29 18 -55 14 -59 -4 -5
-2 -5 4 -2 8 4 14 -7 19 -31 3 -20 9 -48 12 -61 4 -17 2 -22 -6 -17 -6 4 -11
2 -11 -3 0 -6 8 -11 18 -11 33 0 222 50 283 75 34 14 63 24 64 22 1 -1 36 -48
78 -103 l76 -102 -92 -7 c-145 -12 -517 -21 -517 -12 0 4 -14 7 -31 7 -16 0
-28 4 -25 9 3 5 -1 14 -9 21 -13 10 -15 9 -15 -9 0 -12 -6 -21 -14 -21 -22 0
-28 16 -11 30 8 7 15 22 14 34 0 12 -3 15 -6 8 -9 -22 -53 -62 -68 -62 -8 0
-15 -4 -15 -10 0 -6 -27 -10 -62 -10 -68 0 -304 16 -380 26 l-47 6 50 75 c27
42 49 80 49 85 0 6 8 7 18 3 38 -15 179 -53 218 -59 38 -5 42 -4 42 17 0 56
25 225 38 256 18 43 18 41 -12 41 -23 0 -25 3 -19 28 8 40 -9 78 -45 97 -29
15 -34 15 -68 -2 -21 -10 -38 -27 -40 -38 -3 -19 -3 -19 12 1 44 61 150 20
132 -51 -9 -36 -34 -55 -72 -55 -32 0 -66 22 -75 48 -2 6 -40 27 -83 46 -288
131 -503 379 -590 679 -25 85 -48 276 -41 332 2 17 6 60 10 97 7 81 44 215 85
304 16 37 27 71 23 77 -3 5 -2 7 4 4 10 -6 78 91 70 100 -3 2 -15 -13 -28 -34
-12 -21 -24 -39 -25 -41 -1 -2 -13 2 -26 9 -12 7 -27 12 -32 11 -12 -4 -36 18
-36 32 0 7 -20 34 -43 60 -63 68 -85 59 -148 -60 -15 -29 -15 -32 4 -55 l19
-23 -29 -23 c-15 -13 -31 -23 -34 -23 -4 0 -14 -16 -23 -35 -29 -60 4 -140 70
-171 43 -21 132 -13 152 13 16 22 15 10 -5 -78 -12 -49 -19 -66 -21 -49 -7 44
-76 71 -126 49 -19 -9 -32 -9 -56 1 -29 12 -33 11 -60 -15 l-30 -29 0 36 c0
47 41 206 75 294 36 91 114 240 141 269 12 13 19 26 16 29 -3 3 -1 6 5 6 6 0
20 15 31 34 33 57 72 95 91 89 12 -4 13 -3 3 5 -11 7 -3 20 35 55 27 25 67 59
89 76 21 16 48 37 58 47 31 28 195 122 245 141 25 9 51 20 56 24 20 14 182 59
265 73 161 29 253 31 390 12z m-60 -50 c0 -2 -7 -17 -15 -32 -21 -40 -21 -154
0 -154 8 0 15 -5 15 -10 0 -6 -31 -10 -76 -9 l-76 1 -26 39 c-33 48 -60 52
-54 9 2 -18 10 -30 19 -30 8 0 13 -6 11 -12 -5 -15 -88 -24 -88 -9 0 5 4 11 9
13 16 5 1 158 -15 158 -8 0 -14 7 -14 15 0 22 132 21 154 -1 20 -20 20 -53 1
-74 -14 -16 -12 -21 23 -59 29 -32 41 -38 50 -29 15 15 17 168 2 168 -5 0 -10
5 -10 10 0 6 20 10 45 10 25 0 45 -2 45 -4z m110 -16 c22 -6 23 -8 7 -15 -16
-7 -18 -15 -12 -59 12 -93 14 -94 50 -30 23 42 30 63 22 72 -14 18 -5 23 31
16 34 -7 41 -18 18 -27 -8 -3 -34 -42 -58 -87 -34 -63 -47 -80 -63 -78 -17 3
-22 17 -36 98 -9 52 -22 96 -28 98 -6 2 -11 8 -11 13 0 11 44 10 80 -1z m-530
-56 c0 -24 -25 -35 -32 -13 -2 6 -14 8 -30 4 -24 -6 -25 -9 -15 -36 7 -16 16
-28 22 -26 44 17 55 18 55 3 0 -8 -13 -17 -30 -21 -16 -4 -30 -8 -30 -9 0 -8
22 -66 25 -66 19 0 55 23 55 35 0 8 7 15 15 15 9 0 15 -9 15 -24 0 -20 -10
-27 -70 -48 -70 -25 -89 -26 -69 -2 17 20 -29 151 -55 158 -11 3 -17 8 -13 13
11 10 141 51 150 46 4 -2 7 -15 7 -29z m770 -6 c36 -12 66 -23 68 -24 2 -1 -1
-12 -8 -23 -12 -24 -43 -29 -34 -6 4 10 -2 18 -17 24 -27 10 -34 6 -43 -25 -6
-18 -1 -24 26 -33 22 -8 28 -15 21 -22 -6 -6 -18 -6 -37 0 -24 10 -28 8 -37
-16 -16 -43 -5 -56 41 -49 42 7 48 1 27 -28 -12 -16 -16 -15 -77 7 -60 23 -90
47 -57 47 17 0 73 143 57 148 -12 4 -14 22 -2 22 4 0 36 -10 72 -22z m-310
-70 c8 -40 18 -76 24 -80 6 -4 0 -8 -14 -8 -14 0 -29 4 -35 8 -20 14 -16 170
4 158 4 -3 14 -38 21 -78z m196 10 c-15 -43 -36 -81 -49 -90 -7 -4 -6 -12 4
-24 13 -16 12 -17 -16 -10 -35 9 -45 17 -27 23 6 3 12 11 12 19 0 8 5 14 10
14 6 0 10 7 10 15 0 8 5 15 10 15 6 0 10 6 10 13 0 16 28 57 39 57 5 0 3 -15
-3 -32z m-831 -3 c14 -13 25 -33 25 -45 0 -21 -35 -63 -59 -71 -11 -4 -11 -9
0 -27 9 -14 20 -20 31 -16 34 10 18 -16 -22 -36 -48 -25 -53 -25 -45 -1 8 28
-54 151 -77 151 -34 0 -18 15 45 42 34 15 66 27 70 28 4 0 19 -11 32 -25z
m1104 -7 c54 -32 81 -59 81 -81 0 -26 -28 -57 -52 -57 -20 0 -21 -8 -9 -63 10
-42 2 -53 -24 -33 -13 9 -19 27 -19 62 -1 36 -5 50 -17 52 -21 4 -42 -41 -26
-57 23 -23 -4 -22 -45 3 -40 24 -41 27 -20 32 27 8 103 135 84 142 -11 3 -7
22 5 22 3 0 22 -10 42 -22z m-89 -28 c0 -18 -32 -60 -41 -54 -14 8 -11 31 7
48 18 18 34 21 34 6z m-954 -85 c5 -27 11 -35 28 -35 17 -1 14 -4 -14 -19 -33
-18 -67 -18 -39 0 11 7 10 11 -6 23 -17 12 -18 17 -7 40 16 36 30 33 38 -9z
m-217 -10 c24 -27 31 -45 31 -76 0 -81 -90 -128 -152 -79 -82 64 -48 190 52
190 31 0 44 -7 69 -35z m1486 -30 c29 -28 31 -38 10 -55 -18 -15 -34 -5 -28
18 6 24 -23 50 -39 34 -8 -8 -8 -21 0 -50 24 -80 12 -112 -44 -112 -24 0 -39
8 -58 31 -31 36 -33 55 -7 68 23 13 32 4 25 -24 -3 -13 1 -29 11 -39 38 -38
53 -9 29 60 -17 52 -17 54 1 74 25 28 70 26 100 -5z m-1728 -70 c-9 -21 101
-117 125 -109 25 7 23 -3 -8 -43 -24 -31 -49 -38 -38 -10 2 7 -7 24 -21 37
l-25 24 -29 -35 -29 -34 21 -23 c13 -14 27 -20 39 -16 28 8 22 -18 -10 -49
-28 -27 -45 -28 -36 -2 7 18 -107 116 -122 104 -23 -19 -22 5 3 37 28 38 43
43 43 16 0 -11 9 -27 19 -36 19 -17 21 -17 50 16 l30 33 -21 22 c-15 16 -25
20 -33 13 -24 -20 -23 4 2 36 26 35 50 46 40 19z m1853 -60 c0 -4 -8 -4 -17
-1 -24 9 -125 -91 -117 -116 8 -26 -8 -22 -39 10 -30 31 -34 44 -13 40 17 -4
128 100 121 113 -4 5 -3 13 0 19 6 9 65 -50 65 -65z m75 -77 c46 -70 48 -116
4 -152 -63 -54 -118 -43 -173 34 -34 47 -37 64 -10 53 7 -3 41 15 73 39 44 31
59 48 55 61 -11 34 16 16 51 -35z m55 32 c0 -11 10 -25 43 -61 10 -11 15 -25
11 -31 -4 -6 -3 -8 3 -5 11 7 133 -223 133 -251 0 -9 6 -29 14 -44 30 -57 83
-348 64 -348 -5 0 -17 14 -26 32 -9 17 -27 41 -39 53 -23 22 -23 22 -4 44 35
40 36 76 4 121 -49 70 -145 88 -207 39 -13 -10 -30 -19 -36 -19 -7 0 -10 -7
-6 -15 3 -8 1 -15 -4 -15 -8 0 -12 11 -27 65 -4 16 -3 18 8 8 17 -17 29 -16
29 2 0 8 6 15 14 15 8 0 18 9 21 20 11 34 33 49 65 44 48 -8 70 10 70 57 0 24
-4 38 -10 34 -5 -3 -10 1 -10 10 0 41 -45 87 -77 80 -21 -5 -23 -2 -23 42 0
30 -7 60 -20 81 -20 32 -19 52 1 52 5 0 9 -5 9 -10z m-2176 -159 c12 -13 14
-21 6 -26 -6 -4 -14 -4 -17 -1 -4 3 -13 -3 -21 -15 -12 -18 -12 -22 4 -34 28
-21 39 -18 53 12 9 19 15 23 23 15 8 -8 7 -18 -5 -35 -15 -23 -14 -25 18 -40
32 -15 35 -15 43 0 5 9 14 13 20 9 7 -4 3 -20 -12 -47 -23 -39 -41 -51 -41
-27 0 19 -117 79 -142 73 -13 -3 -23 -2 -23 2 0 12 65 133 71 133 3 0 14 -9
23 -19z m2255 -88 c25 -52 29 -68 19 -74 -27 -17 -40 -10 -34 19 9 41 -5 56
-37 41 -31 -14 -32 -17 -12 -46 10 -14 12 -24 5 -28 -13 -8 -30 3 -30 20 0 23
-18 27 -50 10 -29 -15 -29 -17 -15 -39 9 -13 26 -27 38 -30 18 -5 20 -8 7 -16
-31 -20 -46 -9 -78 55 -32 65 -32 66 -10 63 34 -4 148 53 148 75 0 33 16 17
49 -50z m-2238 -130 c39 -38 45 -79 19 -121 -36 -59 -104 -64 -160 -12 -25 23
-30 36 -30 73 0 39 5 49 32 72 41 35 97 30 139 -12z m84 -32 c-17 -34 -28 -41
-19 -13 11 34 28 64 32 54 2 -6 -4 -24 -13 -41z m2233 -74 c16 -16 26 -40 29
-71 5 -44 5 -46 -21 -46 -27 0 -37 25 -13 33 21 7 -4 60 -33 67 -37 10 -88 -7
-106 -35 -17 -26 -11 -65 10 -65 8 0 19 -6 25 -14 9 -11 6 -15 -14 -19 -20 -3
-30 2 -43 21 -35 53 -14 128 43 153 34 15 96 3 123 -24z m-41 -90 c3 -30 0
-37 -15 -37 -25 0 -63 37 -56 55 3 7 13 16 22 18 36 10 47 2 49 -36z m-2456
-67 c5 0 9 -7 9 -15 0 -8 -6 -15 -14 -15 -23 0 -30 -38 -12 -65 21 -31 80 -43
115 -24 35 19 41 65 10 74 -20 7 -32 -1 -42 -30 -10 -24 -19 7 -13 41 7 36 8
36 48 31 22 -3 42 -8 45 -11 3 -3 8 -25 10 -48 4 -37 1 -49 -21 -75 -62 -74
-186 -30 -186 66 0 55 10 83 27 77 8 -3 19 -6 24 -6z m2519 -37 c19 -18 33
-41 36 -64 5 -30 1 -42 -23 -69 -26 -29 -36 -33 -76 -33 -57 0 -92 22 -107 68
-23 69 21 125 97 125 32 0 50 -7 73 -27z m-2607 -29 c-3 -28 3 -45 27 -77 l30
-41 -22 -9 c-28 -10 -25 -7 -33 -39 -6 -22 -1 -32 20 -52 l28 -26 -24 -34
c-19 -28 -25 -32 -32 -20 -11 19 -15 292 -5 317 11 27 16 20 11 -19z m2702
-166 c-6 -112 -13 -166 -46 -313 -6 -27 -17 -57 -24 -65 -7 -8 -15 -32 -19
-52 -4 -20 -13 -50 -21 -65 -19 -35 -19 -20 -1 31 10 28 11 48 4 67 -10 28
-16 32 -76 44 -36 7 -56 36 -47 64 5 17 11 18 43 10 20 -6 47 -15 59 -21 19
-9 27 -8 43 7 15 14 20 15 21 4 1 -8 5 3 10 24 13 55 -10 87 -63 87 -52 0 -78
15 -78 45 0 29 14 34 60 24 61 -15 77 -11 98 23 19 30 19 33 4 57 -9 14 -21
29 -26 32 -12 9 26 99 38 92 5 -4 7 1 3 10 -4 11 -1 17 8 17 13 0 14 -18 10
-122z m-2433 -18 c3 -63 4 -104 1 -91 -3 13 -13 26 -24 28 -11 3 -18 8 -17 12
30 57 32 63 20 92 -8 23 -8 37 0 55 6 13 12 23 13 22 1 -2 5 -55 7 -118z
m-222 30 c0 -10 69 -8 158 6 49 8 41 -14 -32 -84 -35 -34 -59 -62 -52 -62 50
0 106 14 106 27 0 8 5 11 10 8 6 -3 10 -22 10 -42 0 -30 -2 -34 -15 -23 -21
18 -165 4 -165 -16 0 -22 -17 -16 -24 9 -4 18 8 36 62 91 37 38 59 66 49 62
-10 -3 -36 -6 -58 -6 -28 0 -39 -4 -39 -15 0 -8 -7 -15 -15 -15 -10 0 -15 11
-15 35 0 19 5 35 10 35 6 0 10 -5 10 -10z m2412 -22 c2 -6 37 -15 79 -19 63
-7 76 -6 86 8 19 25 24 12 16 -42 -5 -39 -8 -45 -18 -32 -7 10 -38 18 -88 24
l-77 9 0 -28 c0 -16 7 -31 15 -34 8 -4 15 -12 15 -20 0 -11 -7 -13 -27 -8 -16
4 -30 8 -32 10 -7 6 11 144 19 144 5 0 10 -5 12 -12z m-19 -162 c7 -18 150
-53 155 -38 2 7 11 12 19 12 10 0 13 -6 8 -17 -3 -10 -9 -30 -12 -45 -6 -30
-18 -36 -26 -14 -4 11 -114 46 -145 46 -16 0 -21 -51 -6 -57 8 -3 14 -12 14
-20 0 -10 -6 -12 -22 -8 -36 11 -38 16 -20 88 16 66 25 80 35 53z m-2405 -24
c16 -16 17 -19 2 -35 -24 -25 -30 -21 -30 18 0 40 3 42 28 17z m232 -23 c12
-44 8 -58 -12 -41 -19 15 -152 -20 -156 -42 -5 -21 -19 -20 -25 2 -14 51 -16
72 -8 72 5 0 12 -4 15 -9 4 -6 20 -6 39 -1 17 5 51 14 75 20 25 6 42 17 42 25
0 31 20 13 30 -26z m18 -90 c2 -16 -6 -33 -23 -49 -25 -24 -34 -60 -14 -60 20
0 49 21 49 35 0 28 17 15 32 -24 16 -41 13 -58 -7 -41 -18 15 -155 -40 -155
-62 0 -36 -17 -16 -37 44 -23 70 -20 93 13 114 18 12 27 13 45 4 19 -11 25 -8
45 16 13 16 23 35 24 42 0 23 25 7 28 -19z m-238 -3 c0 -8 12 -17 26 -20 19
-5 24 -11 19 -24 -4 -9 -10 -35 -13 -57 l-5 -40 -23 70 c-27 80 -28 85 -14 85
6 0 10 -6 10 -14z m2353 -20 c8 -21 136 -69 151 -56 25 20 24 -3 -1 -63 -33
-77 -38 -83 -58 -67 -19 16 -19 30 0 30 13 0 41 38 33 45 -6 5 -47 25 -51 25
-3 0 -10 -14 -16 -32 -8 -22 -15 -28 -22 -21 -6 6 -6 18 1 37 9 25 7 28 -23
41 -30 12 -33 12 -40 -8 -4 -11 -5 -34 -1 -50 6 -28 5 -28 -18 -17 -12 7 -24
14 -26 15 -5 5 51 135 59 135 4 0 9 -6 12 -14z m-1988 -160 c15 -29 15 -30 -1
-14 -15 15 -20 15 -45 2 -24 -12 -32 -12 -49 -2 -23 15 -26 28 -6 28 8 0 24 9
37 19 28 22 40 16 64 -33z m1981 -22 c69 -33 84 -111 33 -169 -25 -28 -34 -33
-45 -24 -20 16 -17 39 4 39 48 0 56 57 12 93 -42 36 -67 42 -96 22 -28 -18
-28 -42 -1 -59 13 -8 20 -8 26 3 5 7 14 12 19 10 7 -3 3 -17 -9 -37 l-21 -33
-32 20 c-46 30 -47 72 -3 116 39 39 63 43 113 19z m-2251 -24 c9 0 11 -7 7
-22 -4 -15 -2 -19 8 -13 8 5 11 3 9 -4 -3 -7 -9 -13 -14 -13 -12 -1 -43 51
-44 72 0 12 2 11 10 -2 5 -10 16 -18 24 -18z m164 1 c10 -10 20 -24 23 -31 3
-10 9 -10 26 1 15 9 20 20 16 33 -10 31 17 14 44 -28 l24 -39 -24 6 c-30 7
-144 -63 -142 -87 1 -9 -3 -16 -10 -16 -15 0 -66 92 -66 121 0 53 70 79 109
40z m2243 -46 c-31 -62 -62 -75 -62 -26 0 16 -3 37 -7 47 -4 12 -3 15 5 10 6
-4 24 0 39 8 49 27 54 19 25 -39z m-2081 -55 c20 -11 49 -60 49 -84 0 -16 -34
-31 -50 -21 -6 4 -6 12 2 24 13 22 5 49 -18 58 -24 9 -32 -12 -26 -68 8 -85
-43 -116 -99 -60 -32 33 -37 56 -13 65 23 9 37 -3 24 -19 -8 -9 -6 -17 6 -29
29 -29 39 -14 36 51 -3 54 -1 62 19 77 27 19 43 20 70 6z m1756 -15 c-3 -6 22
-36 54 -64 49 -43 62 -51 74 -41 12 10 15 10 15 -1 -1 -8 -23 -39 -50 -69 -47
-53 -50 -54 -64 -35 -16 22 -11 39 9 31 7 -2 21 4 30 14 17 19 17 21 -6 39
l-24 20 -21 -25 c-15 -18 -24 -22 -29 -14 -4 6 2 22 15 35 l21 23 -29 21 c-29
20 -30 20 -47 1 -11 -12 -14 -26 -10 -39 8 -27 -16 -29 -32 -3 -9 16 -4 27 35
74 42 50 71 66 59 33z m234 -70 c-9 -19 -22 -34 -28 -35 -7 0 -13 -6 -13 -13
0 -8 -7 -14 -15 -14 -26 0 -18 46 9 53 14 3 32 14 42 25 23 26 24 24 5 -16z
m-355 -50 c18 -15 41 -25 61 -25 34 0 42 -8 58 -54 10 -28 22 -39 57 -50 11
-3 15 -11 12 -21 -3 -8 -9 -13 -13 -10 -4 2 -14 -5 -21 -16 -8 -10 -20 -19
-28 -19 -7 0 -10 -4 -7 -10 3 -5 -1 -10 -9 -10 -9 0 -16 -7 -16 -15 0 -8 -4
-14 -9 -12 -5 1 -17 -8 -27 -19 -11 -12 -36 -30 -56 -41 -21 -11 -35 -23 -31
-26 3 -4 -2 -9 -11 -13 -21 -8 -20 -36 2 -54 10 -8 89 -50 175 -93 86 -43 157
-83 157 -88 0 -5 -2 -9 -4 -9 -3 0 -49 -9 -103 -19 -54 -11 -125 -22 -159 -26
l-60 -7 -59 79 c-85 113 -118 143 -133 126 -7 -7 -24 -13 -38 -13 -13 0 -43
-9 -67 -19 -23 -11 -75 -27 -115 -37 -70 -16 -73 -16 -87 2 -8 10 -15 25 -15
33 0 23 -44 155 -53 162 -4 3 -5 13 -1 22 7 18 41 30 88 31 16 1 31 7 34 14 3
9 11 6 29 -8 37 -29 79 -26 114 9 16 16 29 37 29 45 0 9 7 16 15 16 9 0 29 16
46 35 17 19 37 35 44 35 7 0 15 4 17 9 2 4 34 29 72 55 39 25 66 46 60 46 -6
0 14 19 22 20 0 0 14 -11 30 -25z m-345 -134 c34 -35 36 -49 8 -85 -24 -31
-81 -36 -111 -9 -28 25 -24 77 8 102 36 28 60 26 95 -8z m-1538 -308 c-9 -72
39 -108 221 -167 107 -35 137 -41 236 -50 30 -3 102 -10 160 -16 193 -20 423
-28 690 -25 713 9 1176 114 1147 261 -2 13 -2 24 0 24 13 0 87 -45 132 -80
117 -93 120 -162 9 -247 -174 -135 -508 -227 -988 -273 -150 -15 -581 -15
-740 0 -148 13 -473 63 -562 85 -340 86 -559 226 -527 338 12 42 59 87 149
141 41 25 76 46 77 46 0 0 -1 -17 -4 -37z"/>
<path d="M1371 2744 c-34 -28 -37 -59 -11 -94 13 -17 25 -21 56 -18 37 3 38 4
17 16 -18 10 -28 10 -44 1 -19 -10 -20 -9 -14 11 4 14 1 28 -11 41 -16 18 -16
19 5 19 14 0 25 7 28 20 3 11 9 20 13 20 5 0 12 -9 15 -20 4 -13 15 -20 32
-20 25 0 25 -1 10 -18 -17 -19 -23 -52 -9 -52 4 0 13 14 20 32 13 36 6 50 -39
74 -36 18 -32 18 -68 -12z"/>
<path d="M1930 2768 c0 -3 24 -21 53 -40 60 -41 200 -174 244 -233 99 -131
184 -340 205 -503 11 -83 4 -243 -13 -307 -6 -22 -11 -47 -13 -55 -1 -9 -5
-20 -8 -25 -3 -6 -9 -26 -13 -45 -13 -62 -90 -213 -147 -290 -60 -82 -172
-193 -237 -236 -45 -30 -57 -47 -13 -19 63 40 136 101 190 160 371 396 366
1021 -12 1413 -55 57 -236 195 -236 180z"/>
<path d="M1243 2710 c-37 -34 -9 -84 44 -78 20 2 30 11 38 32 8 24 6 31 -14
47 -29 24 -42 24 -68 -1z m67 -20 c10 0 10 -3 0 -15 -6 -8 -9 -18 -6 -23 3 -5
-8 -9 -24 -9 -22 0 -30 5 -30 19 0 10 -6 18 -12 19 -7 0 -3 4 10 9 12 5 22 15
22 22 1 8 5 7 14 -4 7 -10 19 -18 26 -18z"/>
<path d="M1510 2710 c-24 -18 -24 -21 -10 -47 10 -18 25 -29 44 -31 19 -2 26
0 21 8 -4 6 -16 8 -27 4 -16 -5 -20 -3 -15 10 3 8 2 18 -3 21 -5 3 0 15 10 25
24 24 30 25 30 5 0 -8 7 -15 16 -15 14 0 14 -3 4 -15 -10 -12 -10 -19 -2 -27
20 -20 27 40 7 62 -23 25 -43 25 -75 0z"/>
<path d="M966 2554 c-14 -15 -26 -31 -26 -36 0 -6 -7 -7 -16 -4 -18 7 -67 -28
-70 -50 -4 -23 -11 -28 -55 -33 -3 -1 -14 -19 -24 -42 -11 -23 -31 -47 -47
-55 -21 -11 -28 -22 -28 -43 0 -18 -10 -37 -30 -54 -22 -20 -30 -36 -30 -61 0
-20 -8 -40 -20 -51 -13 -12 -20 -31 -20 -57 0 -21 -7 -50 -17 -64 -13 -21 -14
-31 -5 -62 9 -29 9 -39 -3 -52 -19 -21 -19 -43 -1 -79 9 -17 11 -32 5 -42 -14
-22 -11 -49 10 -78 13 -18 17 -32 10 -42 -14 -22 -11 -35 17 -68 15 -18 24
-38 20 -47 -7 -19 18 -69 39 -77 8 -4 15 -17 15 -29 0 -26 27 -62 51 -71 9 -3
19 -19 22 -37 5 -23 15 -34 41 -45 19 -8 38 -24 41 -36 4 -11 20 -29 37 -38
29 -18 42 -18 116 5 14 4 40 -1 71 -15 74 -31 85 -25 17 9 -33 17 -65 35 -73
41 -7 7 -13 7 -13 2 0 -28 -93 -43 -124 -20 -16 11 -16 15 -3 25 8 7 34 16 58
20 42 7 44 10 41 38 -3 35 13 84 27 84 15 0 32 -73 25 -106 -5 -27 -2 -31 61
-62 70 -34 104 -39 39 -6 -20 11 -44 23 -55 29 -14 7 -19 21 -19 52 0 57 -15
92 -45 103 -14 5 -30 21 -35 34 -5 14 -21 32 -35 42 -14 9 -25 22 -25 28 0 7
-11 23 -25 36 -14 13 -23 26 -20 28 3 3 -2 16 -10 28 -8 13 -18 42 -20 66 -3
23 -10 47 -15 53 -5 6 -7 20 -4 31 3 10 -1 28 -9 39 -11 15 -12 25 -4 43 8 17
8 29 -2 44 -11 18 -10 25 7 47 14 20 17 32 10 44 -6 12 -4 24 6 39 9 12 16 35
16 51 0 16 7 36 16 44 8 9 13 24 11 35 -3 10 2 23 12 31 36 25 33 37 -6 21
-21 -9 -51 -14 -69 -11 -26 5 -33 1 -43 -19 -14 -32 -14 -41 1 -26 14 14 98
16 98 2 0 -16 -47 -42 -89 -47 -29 -4 -42 -12 -50 -30 -6 -13 -11 -25 -11 -27
0 -2 17 5 38 16 36 17 72 16 72 -2 0 -14 -57 -50 -89 -56 -17 -4 -31 -12 -31
-19 0 -8 -3 -22 -7 -32 -6 -17 -5 -17 13 -1 29 26 75 41 87 29 15 -15 -27 -58
-70 -73 -28 -10 -33 -17 -33 -46 l0 -34 26 31 c24 29 74 44 74 22 0 -16 -50
-70 -70 -76 -15 -5 -20 -15 -20 -43 l1 -37 15 27 c14 27 42 48 63 48 24 0 9
-45 -28 -80 -36 -35 -38 -38 -25 -66 7 -16 13 -22 13 -13 1 23 39 69 57 69 31
0 7 -74 -34 -105 -12 -9 -11 -16 1 -45 15 -33 15 -34 16 -9 1 33 49 88 61 69
9 -15 -2 -58 -26 -99 -14 -24 -16 -33 -6 -43 7 -7 12 -17 12 -23 0 -5 -7 -1
-16 10 -10 14 -27 20 -55 21 -38 0 -88 27 -97 52 -5 15 62 16 90 1 16 -9 19
-8 14 3 -3 7 -9 21 -12 31 -4 11 -13 16 -24 12 -32 -10 -110 35 -110 65 0 15
54 12 76 -5 29 -22 34 -18 23 15 -8 22 -17 30 -34 30 -28 0 -81 42 -88 70 -8
30 34 26 72 -6 27 -23 31 -24 31 -7 0 25 -10 38 -46 56 -38 19 -50 34 -59 70
-10 39 18 36 61 -7 l34 -34 0 33 c0 24 -5 35 -18 39 -29 10 -61 49 -68 84 -9
44 15 43 54 -2 17 -19 33 -32 36 -29 14 15 3 44 -29 76 -34 34 -48 88 -26 101
11 7 61 -50 61 -70 0 -23 17 -7 22 20 4 18 -2 32 -18 47 -27 25 -40 79 -26
104 8 16 11 15 30 -5 12 -13 24 -36 28 -53 l6 -31 14 27 c13 23 12 30 -6 59
-26 43 -26 118 1 118 13 0 39 -56 39 -83 0 -32 8 -38 36 -25 17 8 34 8 59 1
33 -11 37 -9 84 36 63 58 120 101 137 101 7 0 18 9 24 21 9 16 8 25 -5 39 -17
18 -16 20 23 35 23 9 48 28 57 42 15 23 15 26 -1 44 -21 23 -64 24 -106 3 -31
-16 -32 -16 -51 10 -24 33 -38 33 -71 0z m54 -30 c0 -19 -4 -44 -10 -54 -8
-16 -4 -21 35 -36 25 -9 50 -23 57 -31 28 -34 -49 -39 -100 -6 -21 13 -26 13
-48 -2 -27 -17 -32 -30 -8 -21 21 8 87 -21 82 -36 -6 -18 -64 -22 -100 -7 -26
11 -32 10 -51 -11 l-22 -23 23 6 c26 6 82 -10 82 -24 0 -21 -50 -33 -91 -22
-37 10 -41 9 -56 -14 -9 -13 -18 -21 -21 -19 -2 3 2 16 11 29 13 20 13 26 1
42 -24 33 -13 125 16 125 13 0 33 -68 27 -92 -6 -20 -5 -19 18 2 19 18 22 27
15 41 -16 29 -11 85 9 110 25 31 36 19 36 -40 0 -47 1 -48 21 -34 18 11 21 21
17 52 -6 43 19 101 42 101 10 0 15 -11 15 -36z m170 1 c0 -21 -58 -55 -93 -55
-16 0 -37 -5 -49 -11 -36 -20 -27 -4 24 39 37 31 59 42 84 42 24 0 34 -5 34
-15z m-300 -1038 c0 -18 -7 -45 -15 -61 -14 -26 -14 -31 1 -55 l17 -26 -24 22
c-17 16 -29 19 -39 13 -24 -15 -63 -11 -98 10 -45 28 -32 42 35 38 l55 -3 13
38 c24 71 55 85 55 24z m58 -85 c2 -23 -1 -50 -7 -60 -8 -15 -6 -23 9 -37 11
-10 18 -20 15 -23 -3 -3 -14 3 -25 13 -16 14 -23 16 -32 7 -17 -17 -90 -15
-114 2 -27 21 -9 34 51 38 l50 3 5 40 c11 77 43 88 48 17z"/>
<path d="M1802 2555 c-19 -24 -19 -24 -56 -7 -70 34 -136 0 -102 -53 9 -13 31
-29 51 -36 26 -10 34 -17 29 -29 -15 -35 -9 -55 25 -72 18 -9 43 -26 55 -37
12 -12 28 -21 34 -21 7 0 17 -11 23 -24 6 -13 22 -30 35 -37 21 -11 34 -39 18
-39 -8 0 -98 50 -151 83 -24 15 -45 27 -47 27 -3 0 -63 34 -134 75 -71 41
-139 75 -152 75 -12 0 -50 -15 -84 -34 -157 -86 -383 -220 -403 -239 -22 -20
-23 -27 -23 -191 0 -121 3 -167 11 -159 7 7 9 66 7 170 l-3 160 248 142 248
143 197 -113 c314 -180 299 -170 295 -201 -2 -16 1 -28 7 -28 5 0 10 13 10 30
0 22 4 28 15 24 8 -4 15 -15 15 -25 0 -11 7 -31 17 -45 20 -31 23 -54 29 -224
6 -138 -5 -222 -32 -267 -8 -12 -14 -28 -14 -35 0 -16 -72 -95 -115 -126 -18
-14 -22 -19 -10 -15 13 4 7 -6 -17 -29 -35 -32 -38 -40 -38 -88 0 -43 -3 -53
-20 -57 -11 -3 -20 -9 -20 -14 0 -5 -9 -9 -20 -9 -11 0 -20 -4 -20 -10 0 -20
-19 -10 -23 12 -3 17 -5 14 -6 -9 0 -18 2 -33 5 -33 3 0 35 14 69 30 l63 30 0
56 c0 37 4 61 15 71 13 14 16 13 27 -6 6 -13 10 -39 8 -59 -3 -36 -2 -36 41
-44 24 -4 50 -13 58 -20 13 -10 13 -14 -3 -25 -26 -19 -78 -16 -105 6 -23 18
-24 18 -59 -5 -19 -13 -50 -28 -67 -35 -18 -6 -31 -15 -28 -19 3 -5 32 3 65
16 49 20 65 22 82 13 54 -29 129 -13 143 31 4 11 19 27 35 35 31 16 62 54 55
66 -3 4 8 15 23 25 36 23 53 46 46 63 -2 8 10 29 27 47 20 21 32 43 32 60 0
16 9 40 20 55 13 19 18 37 14 55 -3 19 2 41 16 65 19 32 20 40 8 62 -11 21
-10 29 4 57 16 31 16 36 1 60 -12 21 -13 35 -6 61 13 44 13 45 -7 64 -11 11
-16 31 -15 54 2 25 -4 46 -18 63 -11 15 -20 36 -20 48 0 27 -18 61 -42 78 -10
7 -18 23 -18 36 0 14 -16 37 -40 59 -22 19 -40 42 -40 50 0 18 -32 47 -52 47
-8 0 -26 17 -39 37 -15 24 -34 40 -51 43 -14 3 -36 17 -48 33 -27 34 -53 35
-78 2z m64 -27 c10 -20 14 -45 11 -69 -4 -31 -1 -41 17 -53 22 -14 22 -13 22
34 -1 59 10 72 35 41 21 -25 25 -81 9 -112 -21 -39 -127 -67 -145 -38 -11 16
26 38 65 39 l34 0 -22 22 c-21 21 -23 21 -49 7 -55 -32 -118 -34 -107 -4 7 18
72 48 86 39 7 -4 8 -3 4 4 -4 7 -2 12 4 12 7 0 8 6 0 19 -5 11 -10 36 -10 55
0 46 23 48 46 4z m-130 -2 c39 -28 90 -80 69 -71 -11 4 -39 11 -62 15 -80 13
-129 70 -60 70 18 0 42 -6 53 -14z m304 -125 c14 -28 12 -84 -4 -106 -12 -16
-12 -22 1 -42 9 -13 13 -26 11 -29 -3 -2 -12 6 -21 19 -14 22 -19 24 -54 15
-39 -10 -93 2 -93 21 0 14 56 30 82 24 22 -6 22 -5 6 14 -28 30 -21 39 9 12
21 -20 25 -21 20 -5 -8 22 10 96 23 96 5 0 14 -9 20 -19z m76 -96 c8 -34 -2
-84 -22 -106 -12 -14 -13 -22 -4 -39 6 -12 9 -24 6 -27 -3 -3 -11 6 -17 20
-10 21 -17 25 -39 20 -35 -7 -100 14 -100 32 0 18 51 28 82 16 29 -11 38 -6
38 21 0 27 27 88 39 88 6 0 13 -11 17 -25z m60 -139 c-4 -18 -17 -43 -30 -55
-16 -15 -22 -29 -18 -47 5 -27 22 -43 22 -20 0 17 47 76 61 76 5 0 9 -16 9
-36 0 -28 -8 -44 -35 -71 -32 -32 -34 -38 -26 -67 5 -17 10 -24 10 -15 1 19
52 69 70 69 10 0 12 -9 7 -32 -7 -35 -39 -74 -68 -84 -13 -4 -18 -15 -18 -39
l0 -33 34 34 c39 39 66 44 66 13 0 -24 -51 -79 -74 -79 -9 0 -21 -12 -26 -26
-16 -41 -12 -49 13 -26 13 12 37 25 54 28 29 6 31 4 26 -15 -7 -29 -59 -71
-88 -71 -17 0 -26 -8 -34 -31 -15 -43 -15 -43 15 -20 24 19 84 30 84 15 0 -34
-74 -81 -109 -69 -12 4 -21 -1 -25 -12 -3 -10 -9 -24 -12 -31 -5 -11 -2 -12
14 -3 28 15 95 14 90 -1 -8 -24 -59 -52 -96 -52 -25 0 -42 -7 -54 -20 -10 -12
-17 -16 -18 -10 0 5 5 15 12 22 9 9 7 21 -11 52 -14 25 -21 52 -19 72 l3 33
28 -27 c16 -16 27 -38 28 -55 l0 -28 16 33 c16 31 16 33 -10 60 -32 34 -48 92
-24 92 19 0 57 -46 57 -68 0 -22 18 -2 21 23 2 12 -12 35 -34 58 -35 37 -49
77 -26 77 21 0 49 -21 62 -47 l14 -26 5 32 c4 27 1 34 -23 46 -27 15 -69 60
-69 76 0 18 39 8 69 -17 l31 -26 0 29 c0 24 -6 31 -35 42 -38 13 -80 60 -67
73 10 10 59 -7 86 -30 18 -16 19 -16 13 1 -4 10 -7 25 -7 32 0 7 -13 16 -28
20 -34 7 -92 41 -92 54 0 19 35 21 72 3 21 -11 38 -18 38 -16 0 1 -4 14 -9 27
-7 18 -19 25 -49 29 -43 6 -95 35 -86 49 8 13 78 11 91 -2 15 -15 29 -5 38 28
3 16 16 38 28 51 18 20 22 21 30 6 5 -8 6 -30 3 -48z m-171 -702 l13 -39 55 3
c67 4 80 -10 35 -38 -37 -22 -69 -25 -99 -10 -15 8 -21 7 -25 -4 -3 -8 -13
-17 -22 -21 -13 -5 -13 -2 2 14 17 19 18 23 2 55 -16 35 -21 87 -9 100 11 10
33 -17 48 -60z m-78 -26 c4 -7 10 -31 13 -53 l5 -40 50 -3 c60 -4 78 -17 51
-38 -24 -17 -97 -19 -114 -2 -9 9 -16 8 -30 -5 -10 -9 -23 -17 -28 -17 -5 1 1
9 14 19 19 16 21 23 12 46 -24 62 -2 138 27 93z"/>
<path d="M1452 2148 l3 -243 218 -3 217 -2 0 119 c0 141 24 113 -210 246 -85
49 -167 97 -182 107 -14 10 -31 18 -37 18 -8 0 -11 -69 -9 -242z m178 114
c237 -128 230 -121 230 -237 l0 -92 -72 -6 c-49 -3 -76 -1 -81 7 -4 6 -6 60
-5 120 l3 108 -79 25 c-54 17 -75 28 -68 35 7 7 36 2 91 -17 l81 -27 0 -114
c0 -69 4 -114 10 -114 6 0 10 46 10 119 l0 120 -87 26 c-68 21 -91 24 -110 16
-22 -10 -23 -14 -23 -134 l0 -123 48 -13 c26 -6 65 -21 87 -31 l40 -19 -35 4
c-19 2 -66 7 -105 11 -38 3 -73 8 -77 10 -10 6 -11 378 -1 387 10 11 13 10
143 -61z m0 -126 c0 -8 7 -16 15 -20 8 -3 15 -10 15 -17 0 -6 -7 -9 -15 -5
-12 4 -15 -3 -15 -30 0 -46 -24 -41 -28 7 -2 19 -10 38 -18 42 -19 11 -18 31
1 23 8 -3 15 -1 15 4 0 6 7 10 15 10 8 0 15 -6 15 -14z m-45 -75 c10 -45 55
-54 55 -10 0 12 7 19 20 19 17 0 20 -7 20 -49 0 -56 -12 -64 -65 -48 -47 15
-65 36 -65 77 0 58 23 65 35 11z"/>
<path d="M1070 2110 l0 -80 58 -2 57 -1 -55 -6 c-53 -6 -55 -7 -58 -38 l-3
-33 130 0 131 0 0 35 0 34 -57 4 -58 3 58 2 c54 2 57 3 57 27 0 18 5 25 19 25
24 0 34 -53 13 -74 -18 -18 -7 -56 18 -56 25 0 32 26 19 69 -18 56 -24 66 -48
69 -18 3 -21 10 -21 53 l0 49 -130 0 -130 0 0 -80z m250 0 l0 -70 -120 0 -120
0 0 70 0 70 120 0 120 0 0 -70z m0 -125 l0 -25 -120 0 -120 0 0 25 0 25 120 0
120 0 0 -25z"/>
<path d="M1090 2110 c0 -53 2 -60 20 -60 22 0 27 18 7 26 -18 6 -14 54 6 69
24 17 21 25 -8 25 -24 0 -25 -3 -25 -60z"/>
<path d="M1276 2161 c-3 -5 0 -11 8 -14 20 -8 14 -64 -9 -81 -19 -15 -19 -15
8 -16 26 0 27 1 27 60 0 46 -3 60 -14 60 -8 0 -17 -4 -20 -9z"/>
<path d="M1144 2136 c-3 -8 -4 -25 -2 -38 3 -21 9 -23 61 -26 l57 -3 0 41 0
40 -55 0 c-39 0 -57 -4 -61 -14z m106 -26 c0 -29 -2 -30 -45 -30 -38 0 -45 3
-45 20 0 15 7 20 24 20 14 0 28 5 31 10 14 22 35 10 35 -20z"/>
<path d="M1921 1868 c0 -44 3 -57 9 -43 12 28 12 93 0 100 -6 4 -10 -17 -9
-57z"/>
<path d="M967 1843 c-6 -11 -3 -230 3 -236 21 -20 425 -245 432 -241 5 3 7
103 4 242 l-4 237 -215 3 c-119 1 -218 -1 -220 -5z m84 -41 c-26 -48 -67 -51
-55 -4 5 16 14 22 36 22 25 0 27 -3 19 -18z m318 -4 c10 -27 12 -148 2 -148
-18 1 -104 75 -126 110 -14 22 -30 40 -35 40 -6 0 -10 5 -10 10 0 6 33 10 80
10 74 0 81 -2 89 -22z m-229 1 c0 -5 8 -9 18 -8 31 3 43 -1 37 -12 -4 -6 3
-13 14 -16 14 -3 21 -12 19 -23 -2 -9 4 -25 12 -35 11 -14 12 -19 3 -22 -18
-6 -16 -30 4 -41 11 -7 21 -5 31 4 29 30 99 -19 86 -59 -7 -22 -34 -54 -34
-41 0 5 -5 3 -11 -3 -23 -23 -71 13 -71 52 0 24 -22 40 -39 29 -5 -3 -9 -12
-9 -21 0 -10 -6 -14 -20 -10 -10 3 -25 -1 -31 -9 -9 -11 -15 -11 -25 -3 -8 6
-21 8 -30 5 -11 -4 -18 1 -21 14 -3 12 -14 20 -25 20 -15 0 -19 5 -15 20 3 10
-1 25 -9 31 -11 9 -11 15 -3 25 6 8 8 21 5 30 -4 11 1 18 14 21 12 3 20 14 20
25 0 15 5 19 20 15 10 -3 24 1 31 9 14 17 29 18 29 3z m91 -245 c25 -31 64
-44 100 -34 19 6 35 10 36 10 8 0 2 -100 -6 -104 -12 -8 -108 47 -156 89 -33
29 -37 36 -25 45 21 14 36 12 51 -6z"/>
<path d="M1080 1740 c-47 -47 -10 -124 57 -118 48 4 53 23 9 38 -25 8 -36 18
-36 31 0 25 30 25 63 -1 40 -32 47 8 9 53 -21 24 -77 22 -102 -3z"/>
<path d="M1285 1630 c-3 -6 1 -13 9 -16 23 -9 19 -26 -4 -19 -14 4 -20 2 -20
-9 0 -17 30 -29 54 -20 19 7 21 45 4 62 -15 15 -35 16 -43 2z"/>
<path d="M1457 1843 c-4 -3 -7 -114 -7 -246 0 -204 2 -238 14 -234 22 9 367
207 399 229 27 19 27 20 27 139 l0 119 -213 0 c-118 0 -217 -3 -220 -7z m401
-73 c3 -42 2 -44 -15 -29 -10 9 -53 26 -96 38 -83 24 -110 23 -199 -5 -55 -18
-67 -14 -60 21 l4 25 182 -2 181 -3 3 -45z m-100 -27 c69 -16 83 -25 62 -38
-5 -3 -10 -33 -10 -66 0 -44 -4 -59 -14 -59 -11 0 -13 13 -9 62 5 50 4 60 -8
56 -66 -25 -126 -29 -205 -11 -45 10 -83 23 -85 28 -5 12 148 55 176 50 11 -3
53 -12 93 -22z m108 -100 c-9 -9 -27 48 -19 60 4 7 11 -3 16 -22 4 -18 6 -36
3 -38z m-352 15 c8 -13 17 -34 21 -46 4 -13 14 -32 23 -41 10 -9 25 -28 34
-41 11 -15 15 -18 11 -7 -5 16 0 18 46 15 28 -2 51 -4 51 -5 0 -8 -79 -41 -84
-36 -3 4 -6 0 -6 -8 0 -8 -25 -28 -56 -43 -46 -23 -58 -26 -65 -15 -12 18 -10
249 2 249 5 0 15 -10 23 -22z m141 -2 c17 0 47 4 68 8 l37 8 0 -36 c0 -45 -22
-58 -99 -59 -87 0 -101 7 -101 54 l0 41 33 -8 c17 -5 46 -8 62 -8z"/>
<path d="M1245 1269 c3 -3 -8 -9 -24 -12 -33 -7 -41 -27 -41 -104 0 -59 -7
-56 131 -68 73 -7 85 2 73 51 -8 30 -22 31 -26 2 -3 -23 -48 -41 -48 -20 0 7
-10 6 -28 0 -38 -15 -82 -3 -82 21 0 11 6 21 13 24 10 4 10 7 0 18 -36 37 0
68 78 67 51 -1 62 -4 66 -19 7 -25 19 -24 26 1 6 22 42 28 50 8 4 -10 6 -10 6
0 1 17 76 15 95 -3 10 -10 17 -12 21 -4 4 6 17 14 29 18 15 6 0 10 -54 15
-121 9 -289 13 -285 5z"/>
<path d="M1638 1250 c33 -14 27 -55 -7 -55 -14 0 -26 -6 -29 -13 -2 -7 5 -12
19 -12 12 0 28 -8 35 -17 12 -16 14 -10 12 42 -3 56 -5 60 -28 62 l-25 3 23
-10z"/>
<path d="M1231 1216 c-9 -11 -8 -18 4 -30 9 -9 21 -16 26 -16 5 0 9 -7 9 -16
0 -12 -6 -15 -26 -10 -17 5 -23 3 -19 -4 10 -16 55 -12 62 7 4 11 -3 24 -21
38 -28 22 -23 41 8 29 9 -3 16 -1 16 5 0 16 -45 14 -59 -3z"/>
<path d="M1320 1180 c0 -27 5 -50 10 -50 6 0 10 11 10 25 0 21 5 25 30 25 25
0 30 -4 30 -25 0 -14 5 -25 10 -25 6 0 10 23 10 50 0 28 -4 50 -10 50 -5 0
-10 -9 -10 -20 0 -16 -7 -20 -30 -20 -23 0 -30 4 -30 20 0 11 -4 20 -10 20 -5
0 -10 -22 -10 -50z"/>
<path d="M1461 1178 c1 -29 4 -43 6 -30 5 27 29 29 38 2 3 -11 11 -20 16 -20
12 0 12 17 -1 25 -6 4 -5 13 2 24 17 28 3 51 -32 51 -30 0 -30 0 -29 -52z m44
22 c0 -8 -8 -16 -17 -18 -13 -2 -18 3 -18 18 0 15 5 20 18 18 9 -2 17 -10 17
-18z"/>
<path d="M1572 1218 c-7 -7 -12 -24 -12 -38 0 -14 5 -31 12 -38 15 -15 68 -16
68 -1 0 6 -8 8 -19 4 -18 -5 -51 17 -51 35 0 18 33 40 51 35 11 -4 19 -2 19 4
0 15 -53 14 -68 -1z"/>
<path d="M1472 1115 c-18 -10 -20 -14 -9 -23 22 -19 197 3 204 25 3 9 -3 9
-26 0 -23 -8 -39 -9 -61 0 -16 6 -30 7 -30 2 0 -11 -33 -12 -45 -1 -6 5 -20 4
-33 -3z"/>
<path d="M980 956 c0 -8 63 -36 79 -36 14 0 3 26 -12 28 -7 1 -24 4 -39 8 -16
3 -28 3 -28 0z"/>
<path d="M1405 912 c-4 -29 -5 -56 -2 -59 7 -7 20 82 15 99 -3 7 -8 -11 -13
-40z"/>
<path d="M1310 902 c0 -7 -8 -12 -19 -12 -10 0 -24 -7 -31 -15 -10 -13 -9 -15
11 -15 23 0 57 36 45 48 -3 3 -6 0 -6 -6z"/>
<path d="M1510 882 c0 -7 -4 -10 -10 -7 -5 3 -10 -1 -10 -9 0 -9 9 -16 20 -16
22 0 25 7 10 30 -7 11 -10 11 -10 2z"/>
<path d="M1294 795 c-1 -14 -5 -37 -8 -51 -4 -15 -3 -23 2 -20 6 3 12 18 14
33 3 16 9 36 13 46 5 11 3 17 -6 17 -8 0 -15 -11 -15 -25z"/>
<path d="M1405 808 c-2 -7 -1 -53 4 -103 l8 -90 2 103 c1 94 -3 121 -14 90z"/>
<path d="M1339 808 c0 -2 -2 -59 -4 -128 -3 -90 -1 -116 6 -95 5 17 9 70 7
119 -1 63 1 91 10 94 9 3 12 -25 12 -105 1 -78 5 -115 16 -133 8 -14 13 -18
11 -10 -2 8 3 24 12 34 9 11 10 16 4 12 -10 -5 -13 7 -13 48 0 31 -3 56 -7 56
-5 0 -6 25 -5 55 4 53 3 55 -22 55 -14 0 -26 -1 -27 -2z m48 -200 c-2 -18 -4
-6 -4 27 0 33 2 48 4 33 2 -15 2 -42 0 -60z"/>
<path d="M1467 753 c27 -107 28 -113 5 -113 -19 0 -21 7 -25 63 -3 61 -3 61
-5 -15 l-2 -78 24 10 c30 11 41 -1 49 -55 l6 -40 -34 0 c-30 0 -35 3 -35 23 0
19 4 21 26 16 20 -5 25 -3 22 7 -2 7 -16 16 -31 20 -23 6 -27 4 -32 -22 -4
-16 -18 -37 -31 -45 -23 -16 -35 -42 -12 -28 7 4 8 3 4 -5 -4 -6 -11 -9 -16
-6 -4 3 -13 -2 -20 -10 -10 -13 -9 -15 9 -15 13 0 26 10 33 24 10 23 15 24 82
22 39 -2 65 -1 59 1 -7 3 -13 17 -13 31 0 55 -12 104 -22 90 -6 -8 -8 2 -5 30
3 27 0 53 -9 70 -8 15 -14 39 -14 55 0 16 -5 27 -14 27 -11 0 -11 -9 1 -57z"/>
<path d="M1277 635 c-5 -33 -12 -74 -17 -92 -8 -33 1 -43 38 -43 12 0 13 3 5
8 -8 5 -13 41 -15 97 l-3 90 -8 -60z"/>
<path d="M1561 558 c-1 -47 2 -58 15 -58 11 0 14 6 8 23 -4 12 -11 38 -15 57
-6 31 -7 28 -8 -22z"/>
<path d="M1280 3110 c0 -37 2 -41 21 -38 30 4 47 33 33 56 -6 9 -21 18 -33 20
-19 3 -21 -1 -21 -38z"/>
<path d="M837 3014 c-5 -6 31 -84 39 -84 2 0 11 11 19 24 13 19 14 29 5 45
-10 20 -49 29 -63 15z"/>
<path d="M2012 2969 c-11 -18 -18 -37 -16 -41 10 -17 53 -8 65 13 9 18 8 25
-9 41 -19 19 -19 19 -40 -13z"/>
<path d="M649 2891 l-24 -20 20 -37 c11 -21 32 -46 47 -57 25 -19 28 -19 52
-3 14 9 26 24 26 34 0 24 -34 73 -62 88 -30 17 -32 17 -59 -5z m71 -52 c13
-24 13 -29 -3 -29 -19 0 -50 36 -43 49 9 14 34 3 46 -20z"/>
<path d="M2380 2614 c-25 -20 -52 -40 -60 -44 -12 -7 -12 -11 4 -29 22 -25 46
-26 84 -7 40 21 58 59 44 91 -6 14 -15 25 -19 24 -5 0 -28 -16 -53 -35z"/>
<path d="M210 2291 c-16 -31 -4 -57 34 -75 43 -20 80 -20 100 0 39 39 3 84
-73 92 -43 4 -51 2 -61 -17z m86 -25 c12 -10 16 -18 9 -24 -14 -14 -55 4 -55
23 0 19 20 19 46 1z"/>
<path d="M2595 2003 c-77 -20 -69 -103 10 -103 70 0 119 50 84 86 -16 16 -65
25 -94 17z m50 -42 c7 -12 -25 -30 -42 -24 -19 7 -16 21 5 26 28 8 31 7 37 -2z"/>
<path d="M245 1436 c-10 -7 -15 -22 -13 -38 3 -26 3 -26 40 -11 31 13 36 18
28 33 -13 24 -35 31 -55 16z"/>
<path d="M320 1255 c-13 -16 -10 -47 5 -52 6 -1 25 6 43 17 28 17 32 23 22 35
-16 19 -54 19 -70 0z"/>
<path d="M303 399 c-5 -16 -12 -20 -32 -16 -25 5 -25 4 -6 -9 12 -9 19 -24 17
-35 -3 -18 -1 -19 15 -11 13 8 23 6 36 -6 18 -16 18 -15 12 11 -5 20 -3 28 9
33 27 10 18 21 -13 16 -26 -4 -29 -2 -24 17 3 12 2 21 -2 21 -4 0 -9 -9 -12
-21z"/>
<path d="M2770 399 c0 -17 -5 -20 -25 -17 -27 6 -34 -6 -10 -16 8 -3 15 -15
15 -27 0 -18 2 -19 15 -9 12 10 18 10 30 0 12 -10 15 -9 15 5 0 10 7 27 17 37
15 17 15 18 -15 12 -28 -6 -30 -4 -25 15 3 12 1 21 -6 21 -6 0 -11 -10 -11
-21z"/>
<path d="M548 292 c-44 -56 -54 -90 -19 -58 22 20 71 9 71 -15 0 -11 5 -19 11
-19 8 0 9 17 4 57 -12 100 -15 102 -67 35z m34 -30 c-21 -6 -25 4 -11 30 l13
23 6 -25 c4 -17 2 -26 -8 -28z"/>
<path d="M2452 333 c-19 -4 -23 -9 -18 -29 4 -13 9 -44 13 -69 6 -45 6 -46 37
-40 64 13 86 76 41 120 -24 25 -29 26 -73 18z m73 -53 c8 -25 -9 -56 -34 -63
-16 -4 -20 3 -28 44 -9 41 -8 49 6 52 23 5 49 -10 56 -33z"/>
<path d="M654 273 c-4 -32 -8 -62 -9 -68 0 -5 15 -12 33 -16 24 -5 32 -3 32 7
0 8 -10 14 -21 14 -20 0 -21 4 -14 46 3 26 9 53 12 60 3 8 -1 14 -10 14 -10 0
-17 -17 -23 -57z"/>
<path d="M745 278 c-3 -24 -8 -55 -11 -69 -4 -21 0 -28 18 -33 33 -8 48 -7 48
3 0 5 -10 11 -22 13 -13 2 -22 8 -21 14 1 6 5 34 9 62 8 64 -11 73 -21 10z"/>
<path d="M2383 298 c3 -13 9 -44 12 -70 10 -70 29 -61 20 9 -4 31 -9 62 -12
70 -9 22 -26 14 -20 -9z"/>
<path d="M2293 297 c3 -8 8 -39 12 -70 7 -51 10 -57 30 -57 32 0 56 10 49 21
-3 5 -16 6 -29 3 -23 -6 -24 -3 -31 55 -5 44 -11 61 -21 61 -9 0 -13 -6 -10
-13z"/>
<path d="M2216 289 c-2 -8 -13 -42 -25 -76 -15 -49 -17 -63 -7 -63 8 0 16 9
19 20 7 26 55 27 73 3 7 -10 15 -15 18 -12 4 3 -12 37 -33 74 -24 40 -42 63
-45 54z m18 -82 c-20 -12 -25 -6 -17 22 6 23 7 23 20 5 11 -15 11 -19 -3 -27z"/>
<path d="M896 253 c-3 -21 -6 -53 -6 -70 0 -31 2 -33 35 -33 22 0 41 8 55 22
42 45 12 118 -49 118 -25 0 -29 -4 -35 -37z m68 1 c31 -30 9 -84 -35 -84 -20
0 -23 16 -13 69 7 34 24 40 48 15z"/>
<path d="M2150 278 c0 -7 -5 -31 -11 -53 l-11 -40 -24 48 c-14 26 -29 47 -34
47 -15 0 -13 -7 26 -77 l37 -65 23 74 c13 40 24 74 24 76 0 1 -7 2 -15 2 -8 0
-15 -6 -15 -12z"/>
<path d="M1030 248 c0 -18 -3 -50 -6 -70 -5 -25 -3 -38 5 -38 6 0 11 11 11 25
0 34 16 32 35 -5 9 -16 20 -30 26 -30 5 0 3 13 -5 29 -14 26 -14 30 -1 41 36
30 7 80 -44 80 -17 0 -21 -6 -21 -32z m49 3 c17 -11 7 -41 -14 -41 -9 0 -15 9
-15 25 0 27 6 30 29 16z"/>
<path d="M1140 253 c0 -10 -3 -42 -6 -70 l-7 -53 42 0 c22 0 41 5 41 10 0 6
-13 10 -30 10 -23 0 -30 4 -30 20 0 15 7 20 25 20 14 0 25 5 25 10 0 6 -11 10
-24 10 -19 0 -23 4 -19 21 4 15 12 19 31 17 14 -2 27 3 29 10 3 8 -8 12 -36
12 -32 0 -41 -4 -41 -17z"/>
<path d="M1920 216 c0 -30 3 -61 6 -70 8 -20 74 -22 74 -3 0 9 -10 12 -30 9
-25 -4 -30 -1 -30 17 0 16 6 21 25 21 14 0 25 5 25 10 0 6 -11 10 -25 10 -18
0 -25 5 -25 20 0 16 7 20 30 20 17 0 30 5 30 10 0 6 -18 10 -40 10 l-40 0 0
-54z"/>
<path d="M1249 196 c-18 -36 -29 -69 -25 -73 4 -4 12 0 17 10 13 22 58 22 75
0 24 -34 24 -6 -2 58 -14 35 -28 66 -30 68 -1 2 -18 -26 -35 -63z m50 -18 c1
-5 -8 -8 -19 -8 -23 0 -24 4 -8 33 11 21 11 21 19 2 4 -11 8 -23 8 -27z"/>
<path d="M1367 223 c-4 -21 -9 -53 -13 -70 -4 -20 -2 -33 4 -33 6 0 14 19 18
43 l7 42 20 -45 20 -45 21 45 20 45 6 -38 c7 -37 16 -54 25 -46 5 6 -18 125
-26 133 -3 3 -14 -18 -24 -47 l-19 -52 -18 40 c-9 22 -18 46 -18 53 0 28 -18
9 -23 -25z"/>
<path d="M1525 244 c-21 -21 -16 -35 23 -59 17 -11 31 -25 32 -32 0 -16 -22
-22 -42 -12 -9 5 -19 5 -22 0 -10 -15 43 -32 65 -21 28 15 23 46 -11 72 -16
12 -30 28 -30 35 0 15 26 18 35 3 4 -6 11 -8 16 -4 14 8 -9 34 -32 34 -9 0
-25 -7 -34 -16z"/>
<path d="M1724 245 c-4 -11 -16 -42 -26 -69 -18 -48 -16 -78 3 -43 13 22 58
22 75 0 29 -40 23 0 -9 63 -29 57 -37 66 -43 49z"/>
<path d="M1810 221 c0 -53 11 -101 22 -101 5 0 7 13 3 30 -8 38 7 39 33 3 11
-16 24 -25 28 -21 4 5 -1 17 -11 28 -16 18 -16 20 -1 35 19 19 19 21 6 46 -8
13 -21 19 -45 19 -34 0 -35 -1 -35 -39z m63 13 c11 -11 -5 -34 -24 -34 -12 0
-19 7 -19 20 0 19 28 28 43 14z"/>
<path d="M1340 69 c-25 -3 59 -6 185 -6 127 -1 223 1 215 3 -28 7 -354 9 -400
3z"/>
<path d="M21 1717 c-2 -123 57 -329 144 -495 75 -143 150 -243 268 -358 98
-95 123 -116 188 -157 48 -31 33 -10 -19 25 -85 58 -264 247 -328 345 -97 150
-110 174 -147 273 -46 121 -76 232 -92 340 l-12 85 -2 -58z"/>
<path d="M2495 774 c49 -14 114 -36 144 -50 30 -13 56 -22 59 -19 12 12 -234
96 -277 94 -9 0 24 -12 74 -25z"/>
<path d="M431 745 c-35 -13 -68 -28 -74 -34 -9 -9 142 45 152 55 9 9 -17 2
-78 -21z"/>
</g>
</svg>
